<svg xmlns="http://www.w3.org/2000/svg" xmlns:xlink="http://www.w3.org/1999/xlink" width="500" zoomAndPan="magnify" viewBox="0 0 375 374.999991" height="500" preserveAspectRatio="xMidYMid meet" version="1.0"><defs><g/></defs><g fill="#ffffff" fill-opacity="1"><g transform="translate(8.917973, 218.247494)"><g><path d="M 1.59375 0 L 14.421875 -47.625 L 25.609375 -47.625 L 38.109375 0 L 29.578125 0 L 26.734375 -11.96875 L 12.90625 -11.96875 L 10.0625 0 Z M 14.484375 -18.53125 L 25.140625 -18.53125 L 21.109375 -35.53125 C 20.929688 -36.320312 20.765625 -37.113281 20.609375 -37.90625 C 20.453125 -38.695312 20.332031 -39.40625 20.25 -40.03125 C 20.15625 -40.726562 20.066406 -41.429688 19.984375 -42.140625 L 19.640625 -42.140625 C 19.554688 -41.429688 19.472656 -40.726562 19.390625 -40.03125 C 19.296875 -39.40625 19.179688 -38.695312 19.046875 -37.90625 C 18.921875 -37.113281 18.75 -36.320312 18.53125 -35.53125 Z M 14.484375 -18.53125 "/></g></g></g><g fill="#ffffff" fill-opacity="1"><g transform="translate(48.602327, 218.247494)"><g><path d="M 4.765625 0 L 4.765625 -36.390625 L 12.640625 -36.390625 L 12.640625 -30.09375 L 13.234375 -30.09375 C 13.628906 -32.300781 14.664062 -34.007812 16.34375 -35.21875 C 18.019531 -36.4375 20.179688 -37.046875 22.828125 -37.046875 C 26.484375 -37.046875 29.390625 -35.851562 31.546875 -33.46875 C 33.710938 -31.09375 34.796875 -27.875 34.796875 -23.8125 L 34.796875 0 L 26.53125 0 L 26.53125 -22.828125 C 26.53125 -25.023438 25.929688 -26.753906 24.734375 -28.015625 C 23.546875 -29.273438 21.914062 -29.90625 19.84375 -29.90625 C 17.726562 -29.90625 16.0625 -29.253906 14.84375 -27.953125 C 13.632812 -26.648438 13.03125 -24.875 13.03125 -22.625 L 13.03125 0 Z M 4.765625 0 "/></g></g></g><g fill="#ffffff" fill-opacity="1"><g transform="translate(88.286682, 218.247494)"><g><path d="M 12.3125 -13.765625 C 12.3125 -11.554688 12.984375 -9.8125 14.328125 -8.53125 C 15.671875 -7.25 17.507812 -6.609375 19.84375 -6.609375 C 22.1875 -6.609375 24.03125 -7.25 25.375 -8.53125 C 26.71875 -9.8125 27.390625 -11.554688 27.390625 -13.765625 L 27.390625 -22.6875 C 27.390625 -24.894531 26.71875 -26.640625 25.375 -27.921875 C 24.03125 -29.203125 22.1875 -29.84375 19.84375 -29.84375 C 17.550781 -29.84375 15.722656 -29.203125 14.359375 -27.921875 C 12.992188 -26.640625 12.3125 -24.894531 12.3125 -22.6875 Z M 4.03125 -22.6875 C 4.03125 -24.851562 4.40625 -26.816406 5.15625 -28.578125 C 5.90625 -30.335938 6.972656 -31.847656 8.359375 -33.109375 C 9.753906 -34.367188 11.421875 -35.335938 13.359375 -36.015625 C 15.304688 -36.703125 17.46875 -37.046875 19.84375 -37.046875 C 22.226562 -37.046875 24.390625 -36.703125 26.328125 -36.015625 C 28.265625 -35.335938 29.925781 -34.367188 31.3125 -33.109375 C 32.707031 -31.847656 33.78125 -30.335938 34.53125 -28.578125 C 35.28125 -26.816406 35.65625 -24.851562 35.65625 -22.6875 L 35.65625 -13.765625 C 35.65625 -11.597656 35.28125 -9.617188 34.53125 -7.828125 C 33.78125 -6.046875 32.722656 -4.523438 31.359375 -3.265625 C 29.992188 -2.015625 28.328125 -1.046875 26.359375 -0.359375 C 24.398438 0.316406 22.226562 0.65625 19.84375 0.65625 C 17.46875 0.65625 15.304688 0.304688 13.359375 -0.390625 C 11.421875 -1.097656 9.753906 -2.078125 8.359375 -3.328125 C 6.972656 -4.585938 5.90625 -6.097656 5.15625 -7.859375 C 4.40625 -9.628906 4.03125 -11.597656 4.03125 -13.765625 Z M 4.03125 -22.6875 "/></g></g></g><g fill="#ffffff" fill-opacity="1"><g transform="translate(127.971036, 218.247494)"><g><path d="M 4.765625 0 L 4.765625 -36.390625 L 12.640625 -36.390625 L 12.640625 -30.09375 L 13.234375 -30.09375 C 13.628906 -32.300781 14.664062 -34.007812 16.34375 -35.21875 C 18.019531 -36.4375 20.179688 -37.046875 22.828125 -37.046875 C 26.484375 -37.046875 29.390625 -35.851562 31.546875 -33.46875 C 33.710938 -31.09375 34.796875 -27.875 34.796875 -23.8125 L 34.796875 0 L 26.53125 0 L 26.53125 -22.828125 C 26.53125 -25.023438 25.929688 -26.753906 24.734375 -28.015625 C 23.546875 -29.273438 21.914062 -29.90625 19.84375 -29.90625 C 17.726562 -29.90625 16.0625 -29.253906 14.84375 -27.953125 C 13.632812 -26.648438 13.03125 -24.875 13.03125 -22.625 L 13.03125 0 Z M 4.765625 0 "/></g></g></g><g fill="#ffffff" fill-opacity="1"><g transform="translate(167.65539, 218.247494)"><g><path d="M 20.109375 10.921875 L 11.375 10.921875 L 16.34375 -2.046875 L 2.3125 -36.390625 L 11.375 -36.390625 L 18.53125 -17 C 18.832031 -16.207031 19.082031 -15.378906 19.28125 -14.515625 C 19.476562 -13.660156 19.625 -12.859375 19.71875 -12.109375 C 19.84375 -11.265625 19.953125 -10.425781 20.046875 -9.59375 L 20.578125 -9.59375 C 20.617188 -10.382812 20.707031 -11.222656 20.84375 -12.109375 C 20.925781 -12.859375 21.054688 -13.660156 21.234375 -14.515625 C 21.410156 -15.378906 21.628906 -16.207031 21.890625 -17 L 28.640625 -36.390625 L 37.375 -36.390625 Z M 20.109375 10.921875 "/></g></g></g><g fill="#ffffff" fill-opacity="1"><g transform="translate(207.339745, 218.247494)"><g><path d="M 3.234375 -36.390625 L 9.53125 -36.390625 L 9.53125 -31.09375 L 10.125 -31.09375 C 10.257812 -32.945312 10.863281 -34.398438 11.9375 -35.453125 C 13.019531 -36.515625 14.46875 -37.046875 16.28125 -37.046875 C 18 -37.046875 19.441406 -36.515625 20.609375 -35.453125 C 21.773438 -34.398438 22.578125 -32.945312 23.015625 -31.09375 L 23.28125 -31.09375 C 23.414062 -32.945312 24.023438 -34.398438 25.109375 -35.453125 C 26.191406 -36.515625 27.632812 -37.046875 29.4375 -37.046875 C 31.644531 -37.046875 33.375 -36.21875 34.625 -34.5625 C 35.882812 -32.90625 36.515625 -30.644531 36.515625 -27.78125 L 36.515625 0 L 29.578125 0 L 29.578125 -27.125 C 29.578125 -29.851562 28.515625 -31.21875 26.390625 -31.21875 C 24.367188 -31.21875 23.359375 -29.804688 23.359375 -26.984375 L 23.359375 0 L 16.40625 0 L 16.40625 -27.125 C 16.40625 -29.375 15.675781 -30.695312 14.21875 -31.09375 C 13.78125 -31.175781 13.453125 -31.21875 13.234375 -31.21875 C 13.015625 -31.21875 12.679688 -31.175781 12.234375 -31.09375 C 10.867188 -30.695312 10.1875 -29.328125 10.1875 -26.984375 L 10.1875 0 L 3.234375 0 Z M 3.234375 -36.390625 "/></g></g></g><g fill="#ffffff" fill-opacity="1"><g transform="translate(247.024099, 218.247494)"><g><path d="M 12.3125 -13.765625 C 12.3125 -11.554688 12.984375 -9.8125 14.328125 -8.53125 C 15.671875 -7.25 17.507812 -6.609375 19.84375 -6.609375 C 22.1875 -6.609375 24.03125 -7.25 25.375 -8.53125 C 26.71875 -9.8125 27.390625 -11.554688 27.390625 -13.765625 L 27.390625 -22.6875 C 27.390625 -24.894531 26.71875 -26.640625 25.375 -27.921875 C 24.03125 -29.203125 22.1875 -29.84375 19.84375 -29.84375 C 17.550781 -29.84375 15.722656 -29.203125 14.359375 -27.921875 C 12.992188 -26.640625 12.3125 -24.894531 12.3125 -22.6875 Z M 4.03125 -22.6875 C 4.03125 -24.851562 4.40625 -26.816406 5.15625 -28.578125 C 5.90625 -30.335938 6.972656 -31.847656 8.359375 -33.109375 C 9.753906 -34.367188 11.421875 -35.335938 13.359375 -36.015625 C 15.304688 -36.703125 17.46875 -37.046875 19.84375 -37.046875 C 22.226562 -37.046875 24.390625 -36.703125 26.328125 -36.015625 C 28.265625 -35.335938 29.925781 -34.367188 31.3125 -33.109375 C 32.707031 -31.847656 33.78125 -30.335938 34.53125 -28.578125 C 35.28125 -26.816406 35.65625 -24.851562 35.65625 -22.6875 L 35.65625 -13.765625 C 35.65625 -11.597656 35.28125 -9.617188 34.53125 -7.828125 C 33.78125 -6.046875 32.722656 -4.523438 31.359375 -3.265625 C 29.992188 -2.015625 28.328125 -1.046875 26.359375 -0.359375 C 24.398438 0.316406 22.226562 0.65625 19.84375 0.65625 C 17.46875 0.65625 15.304688 0.304688 13.359375 -0.390625 C 11.421875 -1.097656 9.753906 -2.078125 8.359375 -3.328125 C 6.972656 -4.585938 5.90625 -6.097656 5.15625 -7.859375 C 4.40625 -9.628906 4.03125 -11.597656 4.03125 -13.765625 Z M 4.03125 -22.6875 "/></g></g></g><g fill="#ffffff" fill-opacity="1"><g transform="translate(286.708453, 218.247494)"><g><path d="M 4.96875 -36.390625 L 13.296875 -36.390625 L 13.296875 -13.625 C 13.296875 -8.90625 15.476562 -6.546875 19.84375 -6.546875 C 24.257812 -6.546875 26.46875 -8.90625 26.46875 -13.625 L 26.46875 -36.390625 L 34.734375 -36.390625 L 34.734375 -13.625 C 34.734375 -9.082031 33.421875 -5.566406 30.796875 -3.078125 C 28.171875 -0.585938 24.519531 0.65625 19.84375 0.65625 C 15.125 0.65625 11.460938 -0.597656 8.859375 -3.109375 C 6.265625 -5.617188 4.96875 -9.125 4.96875 -13.625 Z M 4.96875 -36.390625 "/></g></g></g><g fill="#ffffff" fill-opacity="1"><g transform="translate(326.392808, 218.247494)"><g><path d="M 18.453125 0.65625 C 14.179688 0.65625 10.773438 -0.210938 8.234375 -1.953125 C 5.703125 -3.691406 4.238281 -6.148438 3.84375 -9.328125 L 12.3125 -9.328125 C 12.570312 -8.179688 13.253906 -7.285156 14.359375 -6.640625 C 15.460938 -6.003906 16.828125 -5.6875 18.453125 -5.6875 L 21.109375 -5.6875 C 23.179688 -5.6875 24.78125 -6.09375 25.90625 -6.90625 C 27.03125 -7.726562 27.59375 -8.84375 27.59375 -10.25 C 27.59375 -12.675781 25.71875 -14.15625 21.96875 -14.6875 L 16.796875 -15.28125 C 12.648438 -15.8125 9.582031 -16.957031 7.59375 -18.71875 C 5.613281 -20.488281 4.625 -23.023438 4.625 -26.328125 C 4.625 -29.765625 5.828125 -32.410156 8.234375 -34.265625 C 10.640625 -36.117188 14.09375 -37.046875 18.59375 -37.046875 L 21.296875 -37.046875 C 25.316406 -37.046875 28.550781 -36.195312 31 -34.5 C 33.445312 -32.800781 34.890625 -30.429688 35.328125 -27.390625 L 26.859375 -27.390625 C 26.640625 -28.398438 26.03125 -29.203125 25.03125 -29.796875 C 24.039062 -30.398438 22.796875 -30.703125 21.296875 -30.703125 L 18.59375 -30.703125 C 14.707031 -30.703125 12.765625 -29.332031 12.765625 -26.59375 C 12.765625 -24.257812 14.394531 -22.894531 17.65625 -22.5 L 23.015625 -21.765625 C 27.335938 -21.234375 30.535156 -20.050781 32.609375 -18.21875 C 34.679688 -16.394531 35.71875 -13.828125 35.71875 -10.515625 C 35.71875 -6.941406 34.460938 -4.1875 31.953125 -2.25 C 29.441406 -0.3125 25.828125 0.65625 21.109375 0.65625 Z M 18.453125 0.65625 "/></g></g></g></svg>